HIERARCHY
ROOT hip
{
	OFFSET 0.000000 0.000000 0.000000 
	CHANNELS 6 Xposition Yposition Zposition Xrotation Zrotation Yrotation
	JOINT abdomen
	{
		OFFSET 0.000000 3.402643 0.000000 
		CHANNELS 3 Xrotation Zrotation Yrotation
		JOINT chest
		{
			OFFSET 0.000000 8.438565 -0.680529 
			CHANNELS 3 Xrotation Zrotation Yrotation
			JOINT neck
			{
				OFFSET 0.000000 10.207942 -0.272212 
				CHANNELS 3 Xrotation Zrotation Yrotation
				JOINT head
				{
					OFFSET 0.000000 3.130431 0.000000 
					CHANNELS 3 Xrotation Zrotation Yrotation
					End Site
					{
						OFFSET 0.000000 3.130435 0.000000 
					}
				}
			}
			JOINT lCollar
			{
				OFFSET 3.470700 6.669187 -0.816635 
				CHANNELS 3 Yrotation Zrotation Xrotation
				JOINT lShldr
				{
					OFFSET 3.198488 0.000000 0.000000 
					CHANNELS 3 Zrotation Yrotation Xrotation
					JOINT lForeArm
					{
						OFFSET 10.139888 0.000000 0.000000 
						CHANNELS 3 Yrotation Zrotation Xrotation
						JOINT lHand
						{
							OFFSET 8.370511 0.000000 0.000000 
							CHANNELS 3 Zrotation Yrotation Xrotation
							End Site
							{
								OFFSET 4.083176 0.000000 0.000000 
							}
						}
					}
				}
			}
			JOINT rCollar
			{
				OFFSET -3.470700 6.669187 -0.816635 
				CHANNELS 3 Yrotation Zrotation Xrotation
				JOINT rShldr
				{
					OFFSET -3.198488 0.000000 0.000000 
					CHANNELS 3 Zrotation Yrotation Xrotation
					JOINT rForeArm
					{
						OFFSET -10.139888 0.000000 0.000000 
						CHANNELS 3 Yrotation Zrotation Xrotation
						JOINT rHand
						{
							OFFSET -8.370511 0.000000 0.000000 
							CHANNELS 3 Zrotation Yrotation Xrotation
							End Site
							{
								OFFSET -4.083176 0.000000 0.000000 
							}
						}
					}
				}
			}
		}
	}
	JOINT lThigh
	{
		OFFSET 5.308129 -1.633274 1.361059 
		CHANNELS 3 Xrotation Zrotation Yrotation
		JOINT lShin
		{
			OFFSET -2.041588 -20.007561 0.000000 
			CHANNELS 3 Xrotation Zrotation Yrotation
			JOINT lFoot
			{
				OFFSET 0.000000 -19.190928 -1.224953 
				CHANNELS 3 Xrotation Yrotation Zrotation
				End Site
				{
					OFFSET 0.000000 -2.449906 4.627600 
				}
			}
		}
	}
	JOINT rThigh
	{
		OFFSET -5.308129 -1.633274 1.361059 
		CHANNELS 3 Xrotation Zrotation Yrotation
		JOINT rShin
		{
			OFFSET 2.041588 -20.007561 0.000000 
			CHANNELS 3 Xrotation Zrotation Yrotation
			JOINT rFoot
			{
				OFFSET 0.000000 -19.190928 -1.224953 
				CHANNELS 3 Xrotation Yrotation Zrotation
				End Site
				{
					OFFSET 0.000000 -2.449906 4.627600 
				}
			}
		}
	}
}
MOTION
Frames: 19
Frame Time: 0.033333
-20.639599 51.568943 -2.169410 8.242188 -11.679688 22.908180 54.537994 -11.685161 -15.885687 -16.855467 6.582031 4.210104 51.063168 8.107644 2.471410 -69.121101 -21.611324 37.167965 2.000000 -2.000000 0.000000 -98.554688 -19.384768 -7.932929 -55.145477 -1.519829 -2.294105 -28.306673 32.340134 -77.030701 -2.000000 2.000000 0.000000 58.378902 -40.810547 7.460937 113.431442 -0.781138 -3.268765 -32.704494 -58.631893 21.966686 -38.351849 18.843679 1.607810 22.662729 -4.892624 -2.156432 -2.050766 10.881324 -3.480414 -20.202131 1.084680 -17.281872 16.311411 5.046865 0.883160 -3.136422 -13.309551 11.060802 
-21.083374 51.553192 -1.892954 8.271484 -12.187499 24.548719 54.364231 -11.604989 -16.017939 -17.031250 6.591797 4.014793 51.063168 8.107644 2.471410 -68.759766 -21.669920 37.207035 2.000000 -2.000000 0.000000 -99.306641 -18.339846 -7.685547 -54.788826 -1.528538 -2.107805 -28.294664 31.948900 -77.423241 -2.000000 2.000000 0.000000 58.271484 -42.070316 9.143847 113.435570 -0.938643 -3.082447 -34.781128 -58.293388 22.810270 -39.272099 18.864594 1.640949 22.663971 -4.883307 -2.174189 -1.811494 12.758961 -4.422974 -20.239346 1.455818 -19.381359 16.485209 5.049162 0.878648 -4.014699 -13.255251 10.520994 
-21.543703 51.545311 -1.653833 8.281250 -12.714844 26.228319 54.363213 -11.514966 -16.177660 -17.031250 6.591797 4.014793 51.063168 8.107644 2.471410 -68.798828 -21.845703 37.275387 2.000000 -2.000000 0.000000 -99.570313 -17.617188 -7.490234 -54.084877 -1.546330 -2.077431 -28.456177 31.699677 -77.514214 -2.000000 2.000000 0.000000 57.929688 -42.832031 11.184768 113.435570 -0.938643 -3.082447 -37.290665 -57.896637 24.116083 -39.786175 19.301857 2.963589 22.833897 -4.784564 -2.161062 -2.018867 12.878247 -4.376145 -20.446297 1.973007 -21.034946 16.839985 5.021104 0.923791 -4.177137 -13.684231 10.241525 
-21.998240 51.521683 -1.456401 8.291017 -13.232422 27.917690 54.516102 -11.395045 -16.050667 -17.197268 6.767579 4.042969 51.063168 8.107644 2.471410 -68.857422 -22.177734 37.197266 2.000000 -2.000000 0.000000 -100.136719 -17.314453 -7.861328 -53.384094 -1.404640 -2.163926 -28.030441 31.481770 -77.509865 -2.000000 2.000000 0.000000 57.548824 -42.167969 12.812500 113.259789 -0.938643 -3.082447 -39.233692 -57.678352 25.433176 -40.451042 20.200346 5.301103 22.615499 -4.875937 -2.168786 -1.922198 12.822267 -3.806881 -20.689163 2.324874 -22.818710 17.020168 5.012733 1.112466 -5.094856 -14.198000 9.541240 
-22.461456 51.490162 -1.261697 8.320313 -13.750000 29.421505 54.689255 -11.379312 -16.065584 -17.197266 6.943360 4.073446 51.063168 8.107644 2.471410 -69.101563 -22.314451 37.382809 2.000000 -2.000000 0.000000 -101.191406 -16.884766 -9.045803 -52.853283 -1.583053 -2.036175 -27.105680 31.689270 -77.414680 -2.000000 2.000000 0.000000 56.708988 -40.996094 14.407660 113.083733 -0.939207 -3.072701 -41.668194 -57.512844 27.546497 -40.146893 21.572769 10.617777 23.721046 -4.794378 -2.197301 -2.625341 12.463534 -3.449573 -21.112452 2.685658 -24.830317 17.191912 4.920177 1.640319 -5.400218 -14.741483 9.167347 
-22.901875 51.482281 -1.111380 8.330078 -14.277344 31.101107 54.870518 -11.351142 -16.084362 -17.363281 7.294922 3.945313 51.063168 8.107644 2.471410 -69.326172 -22.431637 37.324219 2.000000 -2.000000 0.000000 -102.128906 -16.630861 -10.507813 -52.157509 -1.431129 -1.947007 -26.815504 32.101112 -77.548737 -2.000000 2.000000 0.000000 56.376953 -39.228516 15.009766 112.732193 -0.919708 -3.071573 -44.394997 -57.658600 29.896444 -39.763081 23.356602 17.015676 24.238264 -4.843801 -2.297534 -2.976851 11.647441 -2.239067 -21.690664 3.137651 -26.104036 17.196627 4.921428 1.484777 -5.973032 -15.448792 8.846759 
-23.313715 51.482281 -0.960456 8.173828 -14.824219 32.829533 55.216141 -11.310534 -16.110840 -17.529299 7.470703 3.955078 51.063168 8.107644 2.471410 -69.541016 -22.568357 37.285160 2.000000 -2.000000 0.000000 -102.431641 -16.953125 -12.714844 -51.621151 -1.628385 -1.974858 -25.852116 32.367191 -76.445175 -2.000000 2.000000 0.000000 55.800781 -37.324219 15.664063 112.376793 -0.732391 -3.265954 -46.932922 -57.487755 32.528973 -39.798653 24.464762 20.777346 23.855820 -4.863328 -2.269603 -2.103359 11.718586 -1.712829 -22.114439 3.604729 -27.186666 17.189724 4.971402 1.588716 -6.323152 -15.941833 8.822900 
-23.695467 51.498043 -0.823619 8.183594 -15.341797 34.345703 55.579639 -11.257490 -16.141188 -17.685547 7.812500 4.013672 51.063168 8.107644 2.471410 -70.097656 -22.451172 37.128910 2.000000 -2.000000 0.000000 -102.060547 -18.242188 -15.247197 -50.928509 -1.825642 -2.002466 -25.210159 32.632992 -74.359879 -2.000000 2.000000 0.000000 55.195313 -35.224609 16.240234 112.028526 -0.911087 -3.051519 -49.307487 -57.539131 34.659214 -39.921333 24.911427 22.255934 24.236465 -4.765920 -2.467001 -2.521108 9.974922 -1.074798 -22.435163 3.713238 -28.430803 17.192120 4.959430 1.616317 -6.306218 -16.611498 9.041016 
-24.040419 51.505920 -0.694428 8.017768 -15.849964 35.914753 56.096767 -11.188717 -16.186468 -17.841797 8.173829 4.063889 51.063168 8.107644 2.471410 -70.664063 -22.333982 37.167965 2.000000 -2.000000 0.000000 -101.132813 -19.775389 -17.783201 -50.047508 -1.664536 -1.923572 -24.274803 32.696060 -71.127151 -2.000000 2.000000 0.000000 54.882813 -32.822266 16.615803 111.676971 -0.901338 -3.050955 -51.306675 -57.340702 36.761890 -40.268810 25.452368 22.686634 23.696678 -4.864577 -2.237405 -1.916061 9.290558 -1.200516 -22.499929 4.140246 -29.036774 16.844917 5.035971 0.954888 -6.279014 -17.691124 9.193572 
-24.328560 51.537430 -0.573126 8.056641 -16.396484 37.409355 56.451866 -11.153964 -16.223568 -17.822266 8.515625 3.966290 51.063168 8.107644 2.471410 -71.171875 -22.060545 36.953125 2.000000 -2.000000 0.000000 -99.990234 -21.660156 -20.521183 -49.343819 -1.682896 -1.902941 -23.534746 32.579277 -68.257187 -2.000000 2.000000 0.000000 54.824219 -30.087893 16.591797 111.149368 -0.882403 -3.040082 -53.496754 -57.154217 38.822155 -40.719498 25.718122 23.171919 23.698879 -4.799191 -2.234671 -1.978793 8.245944 -1.205076 -22.779766 4.463865 -30.304193 16.669432 4.970337 1.583887 -6.484348 -18.009466 9.195607 
-24.534651 51.561069 -0.478543 7.871093 -16.738281 39.013672 56.987862 -11.076051 -16.265514 -17.988283 8.867188 4.003907 51.063168 8.107644 2.471410 -71.875000 -21.738281 36.982422 2.000000 -2.000000 0.000000 -98.076172 -23.720703 -22.812500 -48.634872 -1.701178 -2.048841 -23.271896 32.553093 -66.561119 -2.000000 2.000000 0.000000 54.785156 -27.382813 16.601564 110.445992 -0.863468 -3.029208 -55.485874 -57.048534 40.557598 -41.101246 25.748695 23.252356 23.503025 -4.775487 -2.243221 -1.768222 8.222621 -1.059733 -22.922075 4.534157 -31.181795 16.493671 4.960695 1.412441 -6.656423 -18.714544 9.724501 
-24.661591 51.616211 -0.413556 7.714844 -17.099611 40.407284 57.515499 -11.103122 -16.163452 -18.164063 9.228517 4.054301 51.063168 8.107644 2.471410 -72.646484 -21.748047 37.138672 2.000000 -2.000000 0.000000 -95.673828 -24.990232 -24.047092 -47.760124 -1.728225 -1.841617 -23.550438 32.403816 -66.943665 -2.000000 2.000000 0.000000 55.175781 -24.423830 16.425781 109.566818 -0.844534 -3.018335 -56.529072 -56.945068 41.159328 -41.481937 25.426369 22.916588 23.522844 -4.779583 -2.226164 -1.976038 7.741907 -1.112270 -23.087660 4.612184 -31.899063 16.320232 4.961430 1.389130 -6.459308 -19.310089 10.225612 
-24.677097 51.624092 -0.385813 7.353515 -17.294924 41.894531 57.851696 -11.056665 -16.177425 -18.310547 9.580079 4.091797 51.063168 8.107644 2.471410 -73.251953 -21.806641 37.460938 2.000000 -2.000000 0.000000 -92.275391 -26.318357 -24.726563 -47.051170 -1.746512 -1.987525 -24.146463 32.340984 -68.273071 -2.000000 2.000000 0.000000 55.546875 -20.722656 15.484828 108.336113 -0.806100 -3.006334 -57.504189 -56.868061 41.635708 -41.647457 25.044765 22.651690 23.360590 -4.795436 -2.206544 -1.798219 7.880672 -1.236363 -23.005930 4.307311 -32.036549 16.311668 5.007748 0.917209 -6.453134 -19.754354 10.987721 
-24.626642 51.655605 -0.369012 6.992188 -17.470703 43.385738 58.397202 -10.984594 -16.230028 -18.466797 9.931642 4.130859 51.063168 8.107644 2.471410 -73.886719 -21.992184 37.958984 2.000000 -2.000000 0.000000 -89.257813 -27.900391 -25.976563 -46.356716 -1.763734 -1.947105 -25.305696 32.352234 -69.742149 -2.000000 2.000000 0.000000 56.044922 -16.689453 14.479617 106.934959 -0.591219 -3.169810 -58.127579 -56.831944 41.882351 -42.105541 24.428619 22.256279 23.705355 -4.786360 -2.408009 -2.553591 8.256376 -1.118913 -23.019718 4.173162 -32.693848 16.322609 5.040512 0.912369 -6.101977 -20.446512 11.871444 
-24.498430 51.679241 -0.384540 6.621094 -17.646484 44.704067 58.915367 -10.919113 -16.266230 -18.642580 10.117187 4.140625 51.063168 8.107644 2.471410 -74.794922 -22.460936 38.925785 2.000000 -2.000000 0.000000 -86.318359 -29.716793 -29.433594 -46.004875 -1.772914 -1.936789 -27.538778 32.649658 -69.989243 -2.000000 2.000000 0.000000 56.572269 -12.666015 13.913877 105.874413 -0.729799 -2.972586 -57.882282 -56.897594 41.300346 -42.378014 23.822094 21.771231 23.695742 -4.864335 -2.266518 -2.597706 7.783840 -0.769875 -22.897202 3.887703 -33.484737 16.314705 4.982224 1.371434 -5.974713 -20.633419 12.173505 
-24.355057 51.687111 -0.437248 6.259766 -17.500002 45.875969 59.269829 -10.875216 -16.301863 -18.808596 10.458985 4.179688 51.063168 8.107644 2.471410 -75.527344 -22.968748 39.765629 2.000000 -2.000000 0.000000 -83.505859 -31.230469 -33.921078 -45.828831 -1.772345 -1.927044 -30.104198 33.118576 -70.247704 -2.000000 2.000000 0.000000 57.128906 -9.072266 13.406665 104.984810 -0.877731 -2.951808 -58.923462 -56.883606 42.042984 -42.396427 23.293739 21.239393 24.038588 -4.847546 -2.272291 -2.945664 7.687806 -0.164374 -22.465714 3.410320 -33.708595 16.836767 4.980712 1.375960 -6.311105 -21.444633 12.620750 
-24.189810 51.671364 -0.489179 5.703125 -17.500000 46.914059 59.624607 -10.825465 -16.323154 -18.798826 10.634766 4.210787 51.063168 8.107644 2.471410 -76.269531 -23.466793 40.859379 2.000000 -2.000000 0.000000 -80.380859 -32.939453 -38.232422 -45.479347 -2.068928 -1.645669 -31.848801 33.761475 -70.172897 -2.000000 2.000000 0.000000 57.822266 -5.478516 12.617187 105.160568 -0.897229 -2.952936 -60.406864 -56.609230 42.978661 -42.427353 22.797758 20.706560 24.588713 -4.746320 -2.482414 -3.725341 7.422747 0.052639 -22.379204 2.853149 -33.847435 17.542421 4.923069 1.484770 -6.497511 -22.325592 12.688744 
-23.989735 51.655605 -0.522937 5.136719 -17.353514 47.975605 59.979069 -10.781570 -16.356964 -18.964846 10.820313 4.208985 51.063168 8.107644 2.471410 -76.962891 -23.789063 41.826172 2.000000 -2.000000 0.000000 -76.718750 -34.257813 -42.310184 -44.778950 -1.888829 -1.744213 -32.035767 34.187958 -70.694740 -2.000000 2.000000 0.000000 58.564453 -1.845703 11.826173 105.868050 -0.927203 -3.111119 -61.465664 -56.038166 43.801933 -42.096706 22.106232 20.320860 24.765724 -4.741033 -2.292574 -3.891200 7.525590 0.138591 -21.900433 2.736120 -33.788486 18.249203 4.914617 1.687476 -6.508168 -23.396143 13.424945 
-23.774040 51.671364 -0.530204 4.775391 -17.021486 48.805737 60.333862 -10.731819 -16.380098 -18.955080 10.996094 4.238281 51.063168 8.107644 2.471410 -77.480469 -24.160154 42.792973 2.000000 -2.000000 0.000000 -72.617188 -35.322266 -46.646271 -43.899788 -2.015566 -1.736799 -31.864151 34.993454 -70.716995 -2.000000 2.000000 0.000000 58.691406 0.810547 11.132812 106.388588 -0.989252 -3.222098 -61.932175 -56.171307 44.623096 -41.939068 21.587250 19.541727 24.950499 -4.814809 -2.351090 -4.347352 7.780373 0.362813 -21.443357 2.285980 -33.059978 18.246515 4.940108 1.263008 -6.286350 -24.459562 13.466800 
